<svg xmlns="http://www.w3.org/2000/svg" height="114.72" version="1.2" viewBox="0 0 68.4 86.04" width="91.2"><path fill="navy" d="M0 0h68.426v86.04H0z"/><g transform="rotate(90.065 34.689 34.62)"><text font-size="3.341" x="10.8" y="21.6" font-family="OCRA" fill="#fff" stroke-width="0">SDA</text></g><g transform="rotate(90.065 34.689 34.62)"><text font-size="3.341" x="10.8" y="28.8" font-family="OCRA" fill="#fff" stroke-width="0">SCL</text></g><g transform="rotate(90.065 34.689 34.62)"><text font-size="3.341" x="10.8" y="14.4" font-family="OCRA" fill="#fff" stroke-width="0">5V</text></g><g transform="rotate(90.065 34.689 34.62)"><text font-size="3.341" x="10.8" y="7.2" font-family="OCRA" fill="#fff" stroke-width="0">GND</text></g><g transform="rotate(90.065 34.689 34.62)"><text font-size="3.341" x="10.8" y="36" font-family="OCRA" fill="#fff" stroke-width="0">SQW</text></g><g transform="rotate(90.065 34.35 34.282)"><path stroke="#fff" stroke-width=".432" stroke-linecap="round" d="M2.16 14.4v-3.6M2.16 10.8L3.96 9M3.96 9h3.6M7.56 9l1.8 1.8M3.96 23.4l-1.8-1.8M2.16 21.6V18M2.16 18l1.8-1.8M3.96 16.2h3.6M7.56 16.2l1.8 1.8M9.36 18v3.6M9.36 21.6l-1.8 1.8M2.16 14.4l1.8 1.8M7.56 16.2l1.8-1.8M9.36 10.8v3.6M2.16 36v-3.6M2.16 32.4l1.8-1.8M3.96 30.6h3.6M7.56 30.6l1.8 1.8M3.96 30.6l-1.8-1.8M2.16 28.8v-3.6M2.16 25.2l1.8-1.8M3.96 23.4h3.6M7.56 23.4l1.8 1.8M9.36 25.2v3.6M9.36 28.8l-1.8 1.8M3.96 37.8h3.6M2.16 36l1.8 1.8M7.56 37.8l1.8-1.8M9.36 32.4V36M2.16 7.2V3.6M2.16 3.6l1.8-1.8M3.96 1.8h3.6M7.56 1.8l1.8 1.8M2.16 7.2L3.96 9M7.56 9l1.8-1.8M9.36 3.6v3.6"/></g><g transform="rotate(90.065 34.35 34.282)"/><circle cx="80.894" cy="-17.551" r="3.667" transform="rotate(90.065)" fill="none" stroke="#9a916c" stroke-width="1.665"/><circle cx="43.454" cy="-17.551" r="3.667" transform="rotate(90.065)" fill="none" stroke="#9a916c" stroke-width="1.665"/><circle cx="13.574" cy="-24.751" r="1.764" transform="rotate(90.065)" fill="none" stroke="#9a916c" stroke-width="1.224"/><circle cx="6.374" cy="-24.751" r="1.764" transform="rotate(90.065)" fill="none" stroke="#9a916c" stroke-width="1.224"/><circle cx="44.174" cy="-41.311" r="1.512" transform="rotate(90.065)" fill="none" stroke="#9a916c" stroke-width=".72"/><circle cx="44.174" cy="-48.511" r="1.512" transform="rotate(90.065)" fill="none" stroke="#9a916c" stroke-width=".72"/><circle cx="44.174" cy="-55.711" r="1.512" transform="rotate(90.065)" fill="none" stroke="#9a916c" stroke-width=".72"/><circle cx="44.174" cy="-62.911" r="1.512" transform="rotate(90.065)" fill="none" stroke="#9a916c" stroke-width=".72"/><circle cx="22.574" cy="-62.911" r="1.512" transform="rotate(90.065)" fill="none" stroke="#9a916c" stroke-width=".72"/><circle cx="22.574" cy="-55.711" r="1.512" transform="rotate(90.065)" fill="none" stroke="#9a916c" stroke-width=".72"/><circle cx="22.574" cy="-48.511" r="1.512" transform="rotate(90.065)" fill="none" stroke="#9a916c" stroke-width=".72"/><circle cx="22.574" cy="-41.311" r="1.512" transform="rotate(90.065)" fill="none" stroke="#9a916c" stroke-width=".72"/><circle cx="5.654" cy="-34.471" r="1.8" transform="rotate(90.065)" fill="none" stroke="#9a916c" stroke-width=".72"/><path d="M38.602 7.497l-8.28-.009.004-3.6 8.28.01-.004 3.6m-2.337-1.803c.003-2.4-3.597-2.405-3.6-.004-.004 2.4 3.596 2.404 3.6.004z"/><circle cx="5.654" cy="-41.671" r="1.8" transform="rotate(90.065)" fill="none" stroke="#9a916c" stroke-width=".72"/><path d="M45.802 7.506l-8.28-.01.004-3.6 8.28.01-.004 3.6m-2.337-1.803c.002-2.4-3.598-2.404-3.6-.004-.004 2.4 3.596 2.404 3.6.004z"/><circle cx="5.654" cy="-48.871" r="1.8" transform="rotate(90.065)" fill="none" stroke="#9a916c" stroke-width=".72"/><path d="M53.002 7.514l-8.28-.01.005-3.6 8.28.01-.004 3.6M50.665 5.71a1.8 1.8 0 1 0-3.6-.004 1.8 1.8 0 1 0 3.6.004z"/><circle cx="5.654" cy="-56.071" r="1.8" transform="rotate(90.065)" fill="none" stroke="#9a916c" stroke-width=".72"/><path d="M60.202 7.522l-8.28-.01.004-3.6 8.28.01-.004 3.6m-2.338-1.803a1.8 1.8 0 1 0-3.6-.004 1.8 1.8 0 1 0 3.6.004z"/><circle cx="5.654" cy="-63.271" r="1.8" transform="rotate(90.065)" fill="none" stroke="#9a916c" stroke-width=".72"/><path d="M67.402 7.53l-8.28-.01.004-3.6 8.28.01-.004 3.6m-2.337-1.803a1.8 1.8 0 1 0-3.6-.004 1.8 1.8 0 1 0 3.6.004z"/><circle cx="52.094" cy="-48.511" r="1.512" transform="rotate(90.065)" fill="none" stroke="#9a916c" stroke-width=".72"/><circle cx="52.094" cy="-41.311" r="1.512" transform="rotate(90.065)" fill="none" stroke="#9a916c" stroke-width=".72"/><circle cx="32.294" cy="-33.391" r="1.764" transform="rotate(90.065)" fill="none" stroke="#9a916c" stroke-width="1.224"/><circle cx="32.294" cy="-4.591" r="1.764" transform="rotate(90.065)" fill="none" stroke="#9a916c" stroke-width="1.224"/><circle cx="23.654" cy="-4.591" r="1.764" transform="rotate(90.065)" fill="none" stroke="#9a916c" stroke-width="1.224"/><circle cx="23.654" cy="-33.391" r="1.764" transform="rotate(90.065)" fill="none" stroke="#9a916c" stroke-width="1.224"/><rect height="4.649" rx="1.92" width="34.676" x="-77.737" y="-43.208" fill="#ccc" transform="matrix(0 1.25 1.25 0 68.546 137.884)"/><circle cx="51.789" cy="93.919" r="10.744" fill="#848484" transform="scale(1.66699 -1.66699) rotate(89.935 96.902 7.834)"/><path d="M.592 61.963a18.094 18.094 0 0 0 1.031 6.073c.058.156.23.24.385.184a.3.3 0 0 0 .184-.384 17.777 17.777 0 0 1-.76-8.732.301.301 0 1 0-.594-.099 17.906 17.906 0 0 0-.246 2.958z" fill="#c6c6c6" opacity=".5"/><path d="M20.006 77.973a6.093 6.093 0 0 0 6.1-6.085 6.08 6.08 0 0 0-2.83-5.146 6.088 6.088 0 0 1-2.58 11.61 6.07 6.07 0 0 1-3.254-.952c.779.363 1.646.572 2.564.573zM20.029 57.469a6.094 6.094 0 0 0 6.1-6.086 6.082 6.082 0 0 0-2.83-5.148 6.093 6.093 0 0 1 3.52 5.527 6.093 6.093 0 0 1-6.1 6.084 6.044 6.044 0 0 1-3.254-.953c.78.364 1.646.575 2.564.576z" fill="#020202" opacity=".43"/><g fill="#999"><path d="M22.265 75.082c1.358.002 2.46-1.218 2.463-2.726.001-1.507-1.096-2.73-2.457-2.732l-2.9-.003-.006 5.456 2.9.005zM22.288 54.577c1.359.002 2.46-1.218 2.463-2.727.001-1.506-1.096-2.731-2.456-2.733l-2.901-.003-.006 5.456 2.9.003v.004z"/></g><path fill="#ccc" d="M19.39 54.573l.007-5.458L6.308 49.1l-.006 5.458zM19.368 75.079l.006-5.456-13.089-.015-.006 5.456z"/><path d="M37.045 50.249h.857l-.027 23.69h-.856l-6.887 6.767-23.656-.027c-2.807-.003-5.099-2.25-5.096-4.989.003-2.74 4.696-6.41 4.704-13.182.007-6.775-4.677-10.576-4.674-13.47v-.522c.004-2.894 2.301-5.257 5.108-5.254l23.656.026 6.871 6.961zM15.853 69.21l-9.386-.01-.007 6.276 9.386.01a5.882 5.882 0 0 0 4.98 2.764 5.896 5.896 0 1 0 .013-11.791 5.875 5.875 0 0 0-4.986 2.751zm.023-20.505l-9.386-.01-.007 6.274 9.386.01a5.883 5.883 0 0 0 4.98 2.765 5.895 5.895 0 1 0 .014-11.79 5.873 5.873 0 0 0-4.987 2.75z" fill="#ccc"/><path opacity=".3" fill="#fff" d="M37.875 73.939l.027-23.69-.856-.001-.027 23.69z"/><path d="M26.73 72.36a5.895 5.895 0 0 1-5.903 5.888 5.879 5.879 0 0 1-4.98-2.762l-9.387-.01.007-6.277 9.386.01a5.882 5.882 0 0 1 4.987-2.753 5.899 5.899 0 0 1 5.89 5.905zM26.753 51.853a5.894 5.894 0 0 1-5.903 5.89 5.878 5.878 0 0 1-4.98-2.765l-9.387-.01.007-6.277 9.386.01a5.884 5.884 0 0 1 4.987-2.752 5.9 5.9 0 0 1 5.89 5.904z" fill="none"/><path d="M30.133 80.705L6.477 80.68a5.143 5.143 0 0 1-2.57-.692l26.84.03z" fill="#898989"/><path d="M30.133 80.705L6.477 80.68a5.143 5.143 0 0 1-2.57-.692l26.84.03z" opacity=".3" fill="#fff"/><path d="M30.175 43.288l.597.69-26.763-.03a4.941 4.941 0 0 1 2.512-.687z" fill="#898989"/><path d="M30.175 43.288l.597.69-26.763-.03a4.941 4.941 0 0 1 2.512-.687z" opacity=".3" fill="#fff"/><g><path d="M34.206 61.707l-3.265-.004.004-3.144h-.533l-.004 3.144-3.29-.004v.573l3.29.003-.004 3.144.533.001.004-3.144 3.264.004z" fill="#fff" opacity=".5"/></g><g><path d="M19.178 70.385l-.005 3.94a.301.301 0 1 0 .602 0l.004-3.94a.303.303 0 0 0-.3-.302.3.3 0 0 0-.301.302z" fill="#b3b3b3"/></g><g><path d="M19.2 49.875l-.004 3.94a.301.301 0 1 0 .602 0l.005-3.94a.301.301 0 0 0-.602 0z" fill="#b3b3b3"/></g><path d="M22.436 75.076c1.255.001 2.28-1.232 2.283-2.72.001-1.488-1.018-2.712-2.277-2.714 1.083.001 1.963 1.401 1.962 2.714-.002 1.314-.886 2.72-1.968 2.72zM22.459 54.566c1.255.002 2.28-1.232 2.283-2.72.001-1.49-1.018-2.713-2.277-2.714 1.083 0 1.963 1.4 1.962 2.714-.002 1.313-.885 2.721-1.968 2.72z" opacity=".3" fill="#fff"/><g><path d="M48.402 52.15c-2.49 1.449-1.744 4.06-2.364 6.402M41.252 52.142c2.487 1.454 1.734 4.064 2.35 6.407" fill="#ccc" fill-rule="evenodd" stroke="#d1d1d1" stroke-width="1.6" stroke-linecap="round"/><g transform="matrix(-.64327 -.00072 .00072 -.64327 49.695 80.71)"><ellipse cx="7.728" cy="34.992" rx="6.4" ry="3.403" fill="#727272"/><g fill="#b5b5b5"><path d="M13.885 34.481c0 1.877-2.754 3.402-6.158 3.402-1.7 0-3.241-.381-4.356-.997-1.115-.616-1.804-1.467-1.804-2.405 0-.939.69-1.791 1.804-2.407 1.115-.616 2.655-.998 4.356-.998 1.702 0 3.241.382 4.355.998 1.114.616 1.803 1.467 1.803 2.407z"/><path d="M2.504 17.868c.557-.308 4.373-.499 5.223-.499.397 0 2.3.042 2.647.117.398.086 2.278.217 2.576.382.557.308.9 8.567.9 9.036 0 .729-.829 9.185-1.998 9.427-.168.034-1.865.062-2.046.08-.181.018-1.89.027-2.08.027-.851 0-4.666-.19-5.223-.498-.557-.309-.902-8.566-.902-9.036.001-.469.346-8.728.903-9.036z"/><path d="M10.773 34.992H1.637V3.662h12.181v31.33z"/></g><path d="M1.672 3.289l-.105 31.192s-.204.875.904 1.773V5.36c-.814-.404-.799-2.071-.799-2.071z" fill="#404040"/><path d="M2.471 5.36l-.17 30.862c.764.6 1.062.813 1.844 1.076l.002-30.842C3.223 5.945 2.471 5.36 2.471 5.36z" fill="#8c8c8c"/><path d="M7.291 7.051l-.14 30.814s3.188.062 3.808-.65l.004-30.69c-1.005.526-3.672.526-3.672.526z" fill="#dbdbdb"/><path d="M4.147 6.42l-.001 30.961c1.412.568 2.095.603 3.582.587l.12-30.964c-1.641.26-3.701-.584-3.701-.584z" fill="#b5b5b5"/><ellipse cx="7.727" cy="3.647" rx="6.091" ry="3.403" fill="#bfbfbf" transform="translate(-.009 .02)"/><path d="M2.169 3.628c0-1.325 1.959-2.435 2.603-2.758C4.085.918 2.05 2.138 2.05 3.643c0 1.534 3.331 2.781 4.038 2.781h2.39c-3.31 0-6.309-1.433-6.309-2.796z" fill="#fff" opacity=".4"/><path d="M10.612.718c.645.307 2.713 1.334 2.713 2.571 0 1.262-1.251 2.325-1.922 2.6 0 0-2.933.535-2.925.535 2.479.098 4.966-1.682 4.966-3.122 0-1.406-2.143-2.538-2.832-2.584z" fill="#878787" opacity=".4"/></g></g><g><g transform="rotate(.065 -19093.507 33453.538)"><path fill="#303030" d="M0 2.16h28.8V21.6H0z"/><path fill="#3d3d3d" d="M0 2.16h28.8v1.771H0z"/><path d="M0 19.829h28.8V21.6H0z"/><path fill="#141414" d="M28.26 3.931V19.83l.54 1.771V2.16z"/><path fill="#1f1f1f" d="M.54 3.931V19.83L0 21.6V2.16z"/><path fill="#1c1c1c" d="M.54 8.251L.403 9.778v2.102H3.6v-3.6z"/><path fill="#383838" d="M3.6 15.516V11.88H.403v2.102l.137 1.534z"/><path d="M.403 9.778v4.197a2.12 2.12 0 0 0 1.887-2.102c0-1.095-.821-1.973-1.887-2.095z" fill="#262626"/><path d="M.54 3.931v4.313a3.7 3.7 0 0 1 3.017 3.629A3.702 3.702 0 0 1 .54 15.509v.007h3.6V3.931z" fill="#303030"/><circle cx="4.68" cy="16.898" r="1.483" fill="#212121"/><path fill="#ccc" d="M2.52 20.635h2.16v3.125H2.52z"/><path fill="#ccc" d="M2.52 21.6h2.16v2.16H2.52z"/><path fill="#ccc" d="M2.52 22.075h2.16l1.44-.662v-.778h-3.6zM2.52 0h2.16v3.125H2.52z"/><path fill="#ccc" d="M2.52 0h2.16v2.16H2.52z"/><path fill="#ccc" d="M6.12 2.347l-1.44-.662H2.52v1.44h3.6zM24.12 20.635h2.16v3.125h-2.16z"/><path fill="#ccc" d="M24.12 21.6h2.16v2.16h-2.16z"/><path fill="#ccc" d="M22.68 21.413l1.44.662h2.16v-1.44h-3.6zM24.12 0h2.16v3.125h-2.16z"/><path fill="#ccc" d="M24.12 0h2.16v2.16h-2.16z"/><path fill="#ccc" d="M26.28 1.685h-2.16l-1.44.662v.778h3.6zM9.72 20.635h2.16v3.125H9.72z"/><path fill="#ccc" d="M9.72 21.6h2.16v2.16H9.72z"/><path fill="#ccc" d="M11.88 22.075l1.44-.662v-.778H8.28v.778l1.44.662zM9.72 0h2.16v3.125H9.72z"/><path fill="#ccc" d="M9.72 0h2.16v2.16H9.72z"/><path fill="#ccc" d="M9.72 1.685l-1.44.662v.778h5.04v-.778l-1.44-.662zM16.92 20.635h2.16v3.125h-2.16z"/><path fill="#ccc" d="M16.92 21.6h2.16v2.16h-2.16z"/><path fill="#ccc" d="M19.08 22.075l1.44-.662v-.778h-5.04v.778l1.44.662zM16.92 0h2.16v3.125h-2.16z"/><path fill="#ccc" d="M16.92 0h2.16v2.16h-2.16z"/><path fill="#ccc" d="M16.92 1.685l-1.44.662v.778h5.04v-.778l-1.44-.662z"/></g></g><g transform="matrix(1.40089 .00838 -.00768 1.52749 -29.194 22.56)"><text font-size="4.176" x="50.4" y="5.76" font-family="OCRA" fill="#fff" stroke-width="0">DS1307</text></g><g transform="matrix(1.31072 .0042 -.00385 1.42964 -12.614 23.766)"><text font-size="4.176" x="50.4" y="10.8" font-family="OCRA" fill="#fff" stroke-width="0">RTC</text></g><g><g transform="rotate(.065 -18014.707 3125.067)"><path fill="none" d="M.375 2.392h.72v.72h-.72zM29.835 2.392h.72v.72h-.72z"/><path fill="none" stroke="#8c8c8c" stroke-width="2.095" stroke-linecap="round" d="M1.063 3.439H2.11M29.867 3.439H28.82"/><path d="M1.063 3.44h28.366" fill="#c8b7b7" stroke="#8c8c8c" stroke-width="2.095"/><path d="M10.263.302c-.36-.165-.98-.295-1.376-.295H6.9a.722.722 0 0 0-.72.72v5.356c0 .397.324.72.72.72h1.987c.396 0 1.016-.136 1.376-.295l.072-.035c.36-.166.979-.295 1.375-.295h7.185c.397 0 1.015.136 1.375.295l.073.035c.36.166.977.295 1.375.295h1.987a.72.72 0 0 0 .72-.72V.727a.721.721 0 0 0-.72-.72h-1.987c-.398 0-1.015.137-1.375.295l-.073.036c-.36.166-.978.296-1.375.296H11.71a4.09 4.09 0 0 1-1.375-.296z" fill="#d9b477"/><path fill="#ad9f4e" d="M22.034.001h.703v6.795h-.703z"/><path fill="#916f6f" d="M16.188.634h1.85v5.537h-1.85zM12.488.634h1.85v5.537h-1.85zM10.643.446a2.163 2.163 0 0 1-.31-.115l-.071-.036A3.939 3.939 0 0 0 8.887 0H8.8v6.796h.087c.396 0 1.015-.136 1.375-.295l.072-.035c.086-.045.194-.08.31-.116V.446z"/><path d="M23.726 3.897c0 .38-.13.699-.295.699h-1.923c-.38 0-.977-.056-1.332-.123l-.073-.015a8.78 8.78 0 0 0-1.334-.123h-6.946c-.382 0-.98.058-1.332.123l-.072.015a8.628 8.628 0 0 1-1.332.122H7.46c-.382 0-.699.294-.699.645v.579c0 .36.317.645.699.645h1.62c.381 0 .979-.122 1.332-.267l.072-.028c.345-.141.95-.265 1.332-.265h6.946c.38 0 .977.124 1.334.266l.075.028c.344.144.944.267 1.333.267h2.225c.38 0 .699-.295.699-.645V2.462c-.277.108-.702.41-.702 1.435z" opacity=".3"/><path opacity=".4" d="M22.034 3.29h.703v3.153h-.703z"/><path d="M19.766.893c.23 0 .49-.101.662-.173.202-.08.577-.144.967-.144h1.46c.225 0 .225.245.225.374 0 .13-.015.382-.225.382h-3.06c-.107 0-.23-.115-.23-.224.006-.086.078-.215.2-.215z" opacity=".25" fill="#fff"/><circle cx="7.015" cy=".943" r=".432" opacity=".35" fill="#fff"/><path opacity=".5" fill="#ff3" d="M22.034.23h.703v1.62h-.703z"/><path opacity=".5" fill="#fff" d="M22.034.59h.703v.749h-.703z"/></g></g><g><g transform="rotate(.138 -11987.14 1474.063)"><path fill="none" d="M.375 2.392h.72v.72h-.72zM29.835 2.392h.72v.72h-.72z"/><path fill="none" stroke="#8c8c8c" stroke-width="2.095" stroke-linecap="round" d="M1.063 3.439H2.11M29.867 3.439H28.82"/><path d="M1.063 3.44h28.366" fill="#c8b7b7" stroke="#8c8c8c" stroke-width="2.095"/><path d="M10.263.302c-.36-.165-.98-.295-1.376-.295H6.9a.722.722 0 0 0-.72.72v5.356c0 .397.324.72.72.72h1.987c.396 0 1.016-.136 1.376-.295l.072-.035c.36-.166.979-.295 1.375-.295h7.185c.397 0 1.015.136 1.375.295l.073.035c.36.166.977.295 1.375.295h1.987a.72.72 0 0 0 .72-.72V.727a.721.721 0 0 0-.72-.72h-1.987c-.398 0-1.015.137-1.375.295l-.073.036c-.36.166-.978.296-1.375.296H11.71a4.09 4.09 0 0 1-1.375-.296z" fill="#d9b477"/><path fill="#ad9f4e" d="M22.034.001h.703v6.795h-.703z"/><path fill="#916f6f" d="M16.188.634h1.85v5.537h-1.85zM12.488.634h1.85v5.537h-1.85zM10.643.446a2.163 2.163 0 0 1-.31-.115l-.071-.036A3.939 3.939 0 0 0 8.887 0H8.8v6.796h.087c.396 0 1.015-.136 1.375-.295l.072-.035c.086-.045.194-.08.31-.116V.446z"/><path d="M23.726 3.897c0 .38-.13.699-.295.699h-1.923c-.38 0-.977-.056-1.332-.123l-.073-.015a8.78 8.78 0 0 0-1.334-.123h-6.946c-.382 0-.98.058-1.332.123l-.072.015a8.628 8.628 0 0 1-1.332.122H7.46c-.382 0-.699.294-.699.645v.579c0 .36.317.645.699.645h1.62c.381 0 .979-.122 1.332-.267l.072-.028c.345-.141.95-.265 1.332-.265h6.946c.38 0 .977.124 1.334.266l.075.028c.344.144.944.267 1.333.267h2.225c.38 0 .699-.295.699-.645V2.462c-.277.108-.702.41-.702 1.435z" opacity=".3"/><path opacity=".4" d="M22.034 3.29h.703v3.153h-.703z"/><path d="M19.766.893c.23 0 .49-.101.662-.173.202-.08.577-.144.967-.144h1.46c.225 0 .225.245.225.374 0 .13-.015.382-.225.382h-3.06c-.107 0-.23-.115-.23-.224.006-.086.078-.215.2-.215z" opacity=".25" fill="#fff"/><circle cx="7.015" cy=".943" r=".432" opacity=".35" fill="#fff"/><path opacity=".5" fill="#ff3" d="M22.034.23h.703v1.62h-.703z"/><path opacity=".5" fill="#fff" d="M22.034.59h.703v.749h-.703z"/></g></g><g><rect height="3.6" rx=".72" width="1.8" fill="#e7ab00" transform="matrix(3.6 0 0 3.6 21.608 3.227)"/></g></svg>